<svg width="70" height="70" viewBox="0 0 70 70" fill="none" xmlns="http://www.w3.org/2000/svg">
<rect width="70" height="70" rx="16" fill="#D82042"/>
<path d="M20.296 32.336C19.032 32.336 17.912 32.112 16.936 31.664C15.96 31.216 15.192 30.576 14.632 29.744C14.088 28.896 13.816 27.896 13.816 26.744V26.312H16.888V26.648C16.888 27.544 17.2 28.264 17.824 28.808C18.448 29.336 19.272 29.6 20.296 29.6C21.336 29.6 22.136 29.352 22.696 28.856C23.272 28.36 23.56 27.736 23.56 26.984V26.744C23.56 26.232 23.432 25.816 23.176 25.496C22.92 25.176 22.576 24.944 22.144 24.8C21.712 24.64 21.224 24.56 20.68 24.56H17.32V21.2L22.744 18.32V17.936H14.248V15.2H26.152V19.28L21.088 21.968V22.352H21.976C22.728 22.352 23.456 22.504 24.16 22.808C24.88 23.112 25.472 23.584 25.936 24.224C26.4 24.848 26.632 25.664 26.632 26.672V26.96C26.632 28.048 26.368 29 25.84 29.816C25.312 30.616 24.568 31.24 23.608 31.688C22.664 32.12 21.56 32.336 20.296 32.336ZM35.0896 32.336C33.8096 32.336 32.6976 32.096 31.7536 31.616C30.8096 31.136 30.0816 30.472 29.5696 29.624C29.0576 28.776 28.8016 27.8 28.8016 26.696V20.96C28.8016 19.6 29.0736 18.472 29.6176 17.576C30.1776 16.664 30.9376 15.984 31.8976 15.536C32.8736 15.088 33.9856 14.864 35.2336 14.864C36.4816 14.864 37.5616 15.072 38.4736 15.488C39.4016 15.904 40.1136 16.504 40.6096 17.288C41.1216 18.072 41.3776 19.008 41.3776 20.096H38.2576C38.2576 19.424 38.0256 18.84 37.5616 18.344C37.0976 17.848 36.3216 17.6 35.2336 17.6C34.1616 17.6 33.3296 17.88 32.7376 18.44C32.1616 19 31.8736 19.776 31.8736 20.768V22.496H32.3056C32.5776 22.176 32.9936 21.872 33.5536 21.584C34.1136 21.296 34.9296 21.152 36.0016 21.152C36.9776 21.152 37.8736 21.36 38.6896 21.776C39.5216 22.192 40.1936 22.8 40.7056 23.6C41.2176 24.384 41.4736 25.336 41.4736 26.456V26.744C41.4736 27.848 41.2096 28.824 40.6816 29.672C40.1536 30.504 39.4096 31.16 38.4496 31.64C37.4896 32.104 36.3696 32.336 35.0896 32.336ZM35.1376 29.6C36.1456 29.6 36.9376 29.336 37.5136 28.808C38.1056 28.28 38.4016 27.576 38.4016 26.696V26.504C38.4016 25.912 38.2656 25.4 37.9936 24.968C37.7376 24.536 37.3616 24.2 36.8656 23.96C36.3856 23.72 35.8096 23.6 35.1376 23.6C34.4816 23.6 33.9056 23.72 33.4096 23.96C32.9136 24.2 32.5296 24.536 32.2576 24.968C32.0016 25.4 31.8736 25.912 31.8736 26.504V26.696C31.8736 27.576 32.1616 28.28 32.7376 28.808C33.3296 29.336 34.1296 29.6 35.1376 29.6ZM49.7095 32.336C48.3975 32.336 47.2615 32.104 46.3015 31.64C45.3575 31.176 44.6295 30.52 44.1175 29.672C43.6055 28.824 43.3495 27.84 43.3495 26.72V26.48H46.4695V26.696C46.4695 27.496 46.7335 28.184 47.2615 28.76C47.8055 29.32 48.6055 29.6 49.6615 29.6C50.7175 29.6 51.5255 29.32 52.0855 28.76C52.6615 28.184 52.9495 27.44 52.9495 26.528V26.288C52.9495 25.392 52.6615 24.68 52.0855 24.152C51.5255 23.624 50.8215 23.36 49.9735 23.36C49.5095 23.36 49.1255 23.424 48.8215 23.552C48.5175 23.68 48.2695 23.84 48.0775 24.032C47.8855 24.224 47.7255 24.416 47.5975 24.608H43.8775V15.2H55.3495V17.984H46.9495V22.088H47.3815C47.5415 21.88 47.7575 21.68 48.0295 21.488C48.3015 21.296 48.6535 21.136 49.0855 21.008C49.5175 20.88 50.0295 20.816 50.6215 20.816C51.6135 20.816 52.5175 21.024 53.3335 21.44C54.1495 21.856 54.7975 22.472 55.2775 23.288C55.7735 24.088 56.0215 25.08 56.0215 26.264V26.552C56.0215 27.736 55.7655 28.76 55.2535 29.624C54.7575 30.488 54.0375 31.16 53.0935 31.64C52.1495 32.104 51.0215 32.336 49.7095 32.336Z" fill="#F7D2D9"/>
<path d="M38.4101 57.5899C38.0101 57.5899 37.6801 57.2599 37.6801 56.8599C37.6801 56.4599 38.0101 56.1299 38.4101 56.1299C41.2301 56.1299 43.5301 53.8299 43.5301 51.0099C43.5301 48.1899 41.2301 45.8899 38.4101 45.8899C35.5901 45.8899 33.2901 48.1899 33.2901 51.0099C33.2901 51.4099 32.9601 51.7399 32.5601 51.7399C32.1601 51.7399 31.8301 51.4099 31.8301 51.0099C31.8301 47.3799 34.7801 44.4199 38.4201 44.4199C42.0601 44.4199 45.0001 47.3699 45.0001 50.9999C45.0001 54.6299 42.0501 57.5899 38.4101 57.5899Z" fill="#FBFBFD"/>
<path d="M31.59 44.4102C31.99 44.4102 32.32 44.7402 32.32 45.1402C32.32 45.5402 31.99 45.8702 31.59 45.8702C28.77 45.8702 26.47 48.1702 26.47 50.9902C26.47 53.8102 28.77 56.1102 31.59 56.1102C34.41 56.1102 36.71 53.8102 36.71 50.9902C36.71 50.5902 37.04 50.2602 37.44 50.2602C37.84 50.2602 38.17 50.5902 38.17 50.9902C38.17 54.6202 35.22 57.5802 31.58 57.5802C27.94 57.5802 25 54.6302 25 51.0002C25 47.3702 27.95 44.4102 31.59 44.4102Z" fill="#FBFBFD"/>
</svg>
